# xmcd CD database file
#
# Track frame offsets:
#	150
#	15340
#	29080
#	40660
#	56942
#	73075
#	88855
#	103437
#	117765
#	132597
#	147327
#	162875
#
# Disc length: 2360 seconds
#
# Revision: 2
# Processed by: cddbd v1.4PL0 Copyright (c) Steve Scherf et al.
# Submitted via: CDex 1.40Beta8
#
DISCID=b109360c
DTITLE=Topi Sorsakoski - Yksin‰isyys
DYEAR=1991
DGENRE=Other
TTITLE0=Haavekuva
TTITLE1=Pieni Lintu
TTITLE2=Kun Kuu Jo Nousee
TTITLE3=Syliis Saat Mun Puristaa
TTITLE4=Olet Kaikki
TTITLE5=J‰‰n Iltaan Hiljaiseen
TTITLE6=Yksin‰isyys
TTITLE7=Huomiseen
TTITLE8=Aamun Toit Mun Maailmaan
TTITLE9=Cherbourgin Sateenvarjot
TTITLE10=Kerro, Onko Niin
TTITLE11=Mona Lisa
EXTD=YEAR: 1991 ID3G: 12
EXTT0=
EXTT1=
EXTT2=
EXTT3=
EXTT4=
EXTT5=
EXTT6=
EXTT7=
EXTT8=
EXTT9=
EXTT10=
EXTT11=
PLAYORDER=
